<svg width="100" height="100" viewBox="0 0 100 100" fill="none" xmlns="http://www.w3.org/2000/svg">
<path d="M46.7425 99.915C36.6833 99.3545 26.6764 95.4445 18.5048 88.8818C10.1795 82.1956 3.97204 72.3889 1.41219 61.8784C0.315048 57.3736 0.0390625 54.9927 0.0390625 50.0324C0.0390625 45.0812 0.315324 42.6904 1.40403 38.2197C2.32701 34.4296 3.335 31.665 5.12093 28.0254C10.1409 17.7952 18.1931 9.8034 28.3852 4.93589C39.0604 -0.162298 50.8077 -1.34113 62.2347 1.53914C70.6934 3.67123 78.8793 8.32401 85.1516 14.5649C92.8717 22.2464 97.8458 32.1768 99.4527 43.1159C99.6362 44.3649 99.7863 45.7368 99.7863 46.1646C99.7863 46.8583 99.7343 46.9318 99.306 46.8433C96.7311 46.3112 94.9208 46.6616 93.8322 47.9026C93.2603 48.5546 93.1691 48.822 93.1691 49.8476C93.1691 50.909 93.2451 51.1127 93.8768 51.7449C94.3776 52.2463 95.0481 52.5908 96.1714 52.9242C98.15 53.5114 98.719 53.8592 98.719 54.4815C98.719 55.2405 98.3053 55.4808 96.9987 55.4808C96.0707 55.4808 95.5179 55.3351 94.6136 54.852L93.4364 54.2233L93.0447 55.0929L92.6529 55.9625L93.2846 56.4712C94.3755 57.3497 96.8537 57.8131 98.4696 57.4407L99.3943 57.2276L99.2434 58.3306C98.9956 60.1422 97.7453 64.8612 96.9105 67.1358C94.4696 73.7867 90.2115 80.4582 85.2734 85.3682C74.9581 95.6247 61.4268 100.733 46.7425 99.915ZM12.2693 49.8188V42.0202H11.7357H11.202V49.8188V57.6174H11.7357H12.2693V49.8188ZM22.2096 57.3041C22.7886 57.1319 23.58 56.7232 23.9684 56.3961C24.6197 55.8475 24.65 55.7681 24.3592 55.3739C24.0458 54.9494 24.0404 54.9498 23.5185 55.4406C22.9593 55.9664 21.3161 56.5499 20.4001 56.5479C18.7342 56.5443 17.1766 55.5638 16.5127 54.1008C15.7441 52.407 15.523 52.4895 20.8276 52.4895H25.5436L25.3932 51.3678C25.123 49.3531 24.1521 47.7919 22.6937 47.027C20.9015 46.087 17.9761 46.5562 16.6808 47.9913C14.3223 50.6044 14.3756 53.9565 16.8128 56.298C18.1322 57.5655 20.099 57.9322 22.2096 57.3041ZM16.1115 51.1146C16.1115 49.9791 17.6502 48.1292 18.879 47.7875C20.8871 47.2291 22.9012 47.8939 23.7382 49.3915C24.0009 49.8615 24.2174 50.5105 24.2193 50.8337L24.2228 51.4212H20.1672C16.7862 51.4212 16.1115 51.3702 16.1115 51.1146ZM33.4585 57.0071C34.4818 56.3741 34.9904 55.3412 34.8382 54.2054C34.6556 52.8425 33.8703 52.1557 31.7315 51.4882C29.6224 50.83 28.7054 50.159 28.7054 49.2739C28.7054 47.8466 30.6024 47.2275 32.7832 47.9432C34.0611 48.3625 34.0629 48.3625 34.2927 47.9327C34.5997 47.3585 34.1423 47.0299 32.586 46.7065C29.5112 46.0676 27.4354 47.3359 27.7006 49.6914C27.8299 50.8398 28.6218 51.6346 30.1908 52.191C32.5375 53.0231 33.0738 53.2891 33.4665 53.8156C34.2657 54.887 33.419 56.2105 31.7769 56.457C30.6727 56.6227 28.9098 56.2373 28.194 55.6737C27.5535 55.1695 27.2974 55.1614 27.114 55.6398C26.9279 56.1253 27.8428 56.8775 29.1323 57.2993C30.4411 57.7273 32.5215 57.5868 33.4585 57.0071ZM52.3837 57.1694C53.442 56.852 55.4741 55.0715 56.0358 53.9694C56.2662 53.5174 56.4547 53.0956 56.4547 53.0322C56.4547 52.9688 55.8332 52.9169 55.0736 52.9169C53.7759 52.9169 53.6632 52.9569 53.2059 53.5796C52.4867 54.5589 50.824 55.3412 49.7639 55.1989C48.8383 55.0746 47.4382 54.1923 46.8207 53.3442C46.6068 53.0504 46.28 52.2091 46.0945 51.4746C45.7866 50.2556 45.7869 50.0229 46.0977 48.8039C46.6854 46.4988 48.1134 45.2261 50.1129 45.2254C51.351 45.2249 52.6167 45.8264 53.2494 46.7159C53.6791 47.3199 53.7977 47.3617 55.0818 47.3617C55.8369 47.3617 56.4547 47.3104 56.4547 47.2477C56.4547 47.1851 56.2193 46.6688 55.9316 46.1004C54.9143 44.091 52.6394 42.7806 50.1546 42.7727C46.5189 42.7612 43.5443 45.6609 43.2711 49.4828C43.1345 51.3934 43.4972 52.8317 44.5118 54.403C46.2613 57.1125 49.1677 58.1339 52.3837 57.1694ZM74.4742 57.1017C75.4238 56.7008 77.0838 54.8284 77.3544 53.8531C77.657 52.7621 77.6484 51.1424 77.3345 50.0934C77.1956 49.6296 76.6433 48.7853 76.1071 48.2172C73.9109 45.8906 70.3463 46.0251 68.3109 48.5114C67.387 49.64 67.1259 50.4498 67.1322 52.1676C67.1381 53.7806 67.6416 54.9245 68.8627 56.099C70.3629 57.5419 72.5191 57.9272 74.4742 57.1017ZM71.0408 54.7906C70.144 54.153 69.9013 53.7185 69.7561 52.491C69.6603 51.6817 69.7373 51.2425 70.1101 50.4717C70.9361 48.7638 72.5217 48.3584 73.841 49.5178C75.311 50.8097 75.363 53.0565 73.9555 54.4653C72.9985 55.4233 72.0753 55.5263 71.0408 54.7906ZM86.7483 57.4086C87.905 57.0766 89.0625 56.1485 89.5329 55.1758C89.9196 54.3762 89.9673 53.8626 89.9673 50.4991V46.7207H88.7933H87.6193L87.6116 47.6287C87.5878 50.4321 87.3327 53.9158 87.1333 54.1595C86.7925 54.576 85.7859 55.0535 85.2486 55.0535C84.9897 55.0535 84.4567 54.8082 84.064 54.5084L83.3502 53.9634V50.342V46.7207H82.0694H80.7887V50.4991C80.7887 53.8718 80.8357 54.3747 81.2263 55.1825C82.1491 57.0906 84.5228 58.0475 86.7483 57.4086ZM62.0439 53.7525L62.1113 50.1013L62.7093 49.5869C63.0382 49.304 63.6912 49.011 64.1603 48.936L65.0133 48.7994L64.9497 47.7086C64.8749 46.4232 64.6653 46.3212 62.9077 46.7149C61.5493 47.0192 60.4023 47.9397 59.8412 49.176C59.514 49.8968 59.4517 50.6159 59.4478 53.7181L59.4431 57.4037H60.7098H61.9764L62.0439 53.7525ZM97.8947 51.0911C95.5162 50.332 95.0167 49.7097 96.1009 48.8561C96.5852 48.4747 96.8486 48.421 97.6484 48.5404C98.1785 48.6195 98.9245 48.8145 99.306 48.9736C99.9707 49.2507 99.9997 49.3125 99.9997 50.4489C99.9997 51.8155 100.084 51.7898 97.8947 51.0911Z" fill="#F8CFD2"/>
<path d="M46.9559 99.9123C29.1997 98.8727 13.2149 88.2505 5.17289 72.1469C2.87069 67.5369 1.10141 61.7435 0.395069 56.502C-0.0706156 53.0464 -0.0719867 47.0297 0.392128 43.5868C2.35954 28.992 10.5552 16.0563 22.9421 7.99492C34.4655 0.495436 48.5427 -1.81168 62.218 1.55796C68.8171 3.18402 75.9107 6.76879 81.5357 11.3203C83.8974 13.2312 87.8794 17.3686 89.6972 19.8001C95.4208 27.4564 98.7592 35.9689 99.6923 45.2863L99.8375 46.7356L98.1368 46.5936C94.6519 46.3027 92.6521 47.8082 93.0754 50.4039C93.2835 51.6799 94.1151 52.3742 96.1962 53.0096C98.2638 53.6409 98.8869 54.1271 98.5163 54.8201C98.0463 55.6992 96.4592 55.6229 94.3887 54.6216C93.4139 54.1502 93.348 54.1809 92.8782 55.3244L92.5478 56.1289L93.3387 56.6372C94.4576 57.3562 96.1587 57.6978 97.895 57.5521C98.7004 57.4845 99.3593 57.4806 99.3593 57.5435C99.3593 57.6063 99.1612 58.6343 98.9191 59.8279C93.9558 84.2979 71.8263 101.369 46.9559 99.9123ZM12.432 49.766L12.376 41.914L11.789 41.8464L11.202 41.7788V49.6984V57.618H11.845H12.488L12.432 49.766ZM22.4803 57.3098C23.5031 56.9486 24.6497 56.1479 24.6497 55.7948C24.6497 55.6589 24.4732 55.3877 24.2574 55.1923C23.8898 54.8593 23.8395 54.8658 23.457 55.2955C22.8369 55.992 21.814 56.3361 20.3631 56.3361C18.8197 56.3361 17.7453 55.8292 17.0092 54.7539C16.4826 53.9846 16.0782 52.8083 16.2733 52.6131C16.3408 52.5455 18.4452 52.4902 20.9498 52.4902H25.5035V51.7811C25.5035 50.3622 24.8663 48.7962 23.9164 47.8808C22.816 46.8204 21.5084 46.4041 19.773 46.5616C18.1199 46.7116 16.9065 47.3686 16.0155 48.5961C14.2815 50.985 14.482 54.0864 16.5011 56.1035C17.0499 56.6517 17.8351 57.207 18.246 57.3374C19.3278 57.6806 21.4699 57.6667 22.4803 57.3098ZM16.2146 51.2024C16.006 50.8646 16.9231 49.1451 17.6289 48.5506C18.2867 47.9967 19.4673 47.5792 20.382 47.5772C22.28 47.5729 24.2228 49.2422 24.2228 50.8771V51.4219H20.2865C17.8225 51.4219 16.2994 51.3398 16.2146 51.2024ZM32.7999 57.3675C34.0431 56.9946 34.8956 55.9159 34.8956 54.7156C34.8956 52.9086 34.1057 52.1133 31.561 51.3583C28.8599 50.5567 28.0479 49.4966 29.2293 48.3141C29.6706 47.8723 29.9578 47.7896 31.0505 47.7896C31.7641 47.7896 32.7031 47.9382 33.1372 48.1198C33.8659 48.4245 33.9475 48.4214 34.1977 48.0789C34.5925 47.5384 34.5438 47.414 33.775 46.9979C33.2674 46.7232 32.5845 46.6214 31.2299 46.6185C29.1023 46.6139 28.4539 46.9284 27.7762 48.2934C27.0206 49.8153 27.8957 51.4553 29.824 52.1308C30.3241 52.306 31.2023 52.6156 31.7757 52.8188C33.1276 53.298 33.6149 53.8012 33.6149 54.7181C33.6149 55.2624 33.4641 55.5692 33.0279 55.9131C32.5192 56.314 32.225 56.366 30.8243 56.3025C29.4769 56.2414 29.0548 56.1279 28.2886 55.6203C27.5578 55.1363 27.332 55.0706 27.1868 55.2999C26.8725 55.7964 26.9912 56.2147 27.5654 56.6338C28.797 57.5326 31.1496 57.8624 32.7999 57.3675ZM52.9575 57.021C54.2033 56.3818 55.1509 55.5326 55.8502 54.4289C56.7972 52.9341 56.7034 52.7038 55.1475 52.7038C53.8741 52.7038 53.8193 52.7277 53.0297 53.6255C51.1628 55.7485 48.1409 55.4277 46.6872 52.9523C46.1733 52.0773 46.102 51.7349 46.102 50.1399C46.102 48.5448 46.1733 48.2025 46.6872 47.3275C48.1235 44.8817 51.1111 44.5436 52.9933 46.6137C53.8465 47.552 53.9004 47.576 55.1614 47.576C56.6486 47.576 56.7221 47.4428 56.0081 46.0419C55.4521 44.951 54.5286 44.0798 53.1461 43.3421C52.2186 42.8471 51.8273 42.7723 50.1577 42.7706C48.4258 42.7687 48.1242 42.8309 47.095 43.4016C44.567 44.8031 43.2204 47.1451 43.2204 50.1399C43.2204 52.8513 44.3378 55.064 46.4768 56.5886C48.0163 57.6859 51.2424 57.9011 52.9575 57.021ZM73.8618 57.3794C75.0646 57.0763 76.5499 55.7812 77.1734 54.492C77.7654 53.2679 77.8175 51.0877 77.285 49.8194C76.7539 48.5543 75.3417 47.2172 74.101 46.8047C72.8681 46.3948 70.9685 46.49 69.9596 47.0122C68.2101 47.9178 67.0651 49.8559 67.039 51.956C67.018 53.6433 67.5465 54.9613 68.6975 56.0921C70.0835 57.4536 71.835 57.8903 73.8618 57.3794ZM70.7766 54.5043C69.5607 53.4802 69.4038 51.1931 70.463 49.9331C71.9001 48.2236 74.2682 48.8922 74.7752 51.1507C75.069 52.4596 74.7187 53.8465 73.9255 54.5145C73.034 55.2654 71.675 55.261 70.7766 54.5043ZM87.0856 57.3808C88.2611 57.0576 89.6154 55.6163 89.9342 54.3493C90.0698 53.8103 90.1807 51.8735 90.1807 50.0453V46.7213H88.7932H87.4058V50.1235C87.4058 53.4719 87.3971 53.5361 86.8532 54.1831C86.4132 54.7064 86.1339 54.8404 85.4832 54.8404C83.563 54.8404 83.3501 54.3618 83.3501 50.0437V46.7213H81.9627H80.5752V49.7902C80.5752 51.4781 80.6731 53.3761 80.7929 54.008C81.3181 56.7804 84.0142 58.2254 87.0856 57.3808ZM62.218 53.6996L62.3247 50.1017L62.9236 49.5866C63.3057 49.2581 63.7887 49.0716 64.2577 49.0716H64.9929V47.7896V46.5077H64.0592C62.9042 46.5077 61.4371 47.0089 60.7551 47.6366C59.6339 48.6684 59.4528 49.4975 59.4477 53.6221L59.443 57.4247L60.7771 57.3611L62.1112 57.2975L62.218 53.6996ZM98.0026 50.9945C95.9137 50.2537 95.5578 49.9416 95.9127 49.1618C96.1591 48.6206 96.2308 48.5992 97.5199 48.6813C99.4013 48.8012 99.9997 49.2287 99.9997 50.4527C99.9997 50.9719 99.9276 51.44 99.8396 51.4929C99.7515 51.5459 98.9249 51.3216 98.0026 50.9945Z" fill="#F29EA3"/>
<path d="M42.3492 99.3948C38.4119 98.7445 36.4033 98.2296 33.0123 97.0014C26.103 94.499 20.1743 90.7318 14.9158 85.5027C11.9497 82.5533 10.582 80.9155 8.48939 77.8076C7.14184 75.8063 5.28771 72.564 4.68185 71.1496C1.68828 64.1604 0.549488 59.6692 0.108339 53.1122C-1.16597 34.1718 8.88882 15.7754 25.6505 6.37984C38.3957 -0.764267 54.0471 -1.93144 67.4846 3.26013C79.4062 7.86604 88.7739 16.2819 94.4221 27.4603C97.2809 33.1182 99.0562 39.1345 99.672 45.2518L99.8146 46.668L97.9278 46.5603C96.3095 46.468 95.887 46.519 94.9576 46.9192C93.1319 47.7053 92.4057 49.7675 93.3872 51.3788C93.7815 52.0261 95.6064 53.1219 96.2998 53.1278C96.4368 53.1288 96.9956 53.3215 97.5415 53.5557C98.4181 53.9318 98.5261 54.0504 98.4664 54.5706C98.3995 55.1527 98.3812 55.1594 96.9045 55.1437C95.8111 55.1321 95.1692 55.0032 94.5116 54.663C94.0173 54.4073 93.563 54.1981 93.502 54.1981C93.3529 54.1981 92.5286 55.8293 92.5286 56.1244C92.5286 56.2531 93.0809 56.6175 93.756 56.9341C94.8077 57.4275 95.2889 57.5148 97.1179 57.5439L99.2525 57.5779L99.185 58.1849C99.0166 59.6987 97.9601 63.9124 97.1865 66.1554C96.1582 69.137 93.8409 74.012 92.2933 76.449C85.3475 87.3875 74.6996 95.2115 62.5381 98.313C57.6487 99.5599 56.1973 99.7441 50.5845 99.8303C45.952 99.9014 45.1636 99.8597 42.3492 99.3948ZM22.9342 57.1567C24.5725 56.4501 24.9285 55.9435 24.3466 55.147C24.0481 54.7384 24.0364 54.739 23.5462 55.188C22.5502 56.1004 21.6854 56.3843 20.1644 56.2983C19.0017 56.2326 18.586 56.1055 17.9536 55.6227C17.1324 54.9957 16.3248 53.658 16.3248 52.9247C16.3248 52.4995 16.4371 52.4889 20.9438 52.4889H25.5627L25.45 51.2448C25.1847 48.3162 23.3126 46.5215 20.512 46.5111C18.8388 46.5048 17.7807 46.8494 16.7428 47.7388C15.3619 48.9219 14.9426 49.9282 14.9418 52.0615C14.9411 53.4193 15.0409 54.0664 15.3367 54.6255C15.8425 55.5816 16.9021 56.7095 17.6752 57.1147C19.0825 57.8522 21.2808 57.8698 22.9342 57.1567ZM16.4087 50.7338C16.834 48.6053 19.2257 47.1894 21.4041 47.7766C22.5364 48.0817 23.407 48.825 23.8913 49.9001C24.5685 51.4032 24.5258 51.4206 20.1471 51.4206H16.2715L16.4087 50.7338ZM12.4826 49.6977V41.7788L11.7889 41.8457L11.0952 41.9127L11.0392 49.7647L10.9832 57.6167H11.7329H12.4826V49.6977ZM33.3307 57.2029C35.2098 56.3489 35.5892 53.7182 34.0234 52.3995C33.6656 52.0981 32.7075 51.6492 31.8942 51.402C29.9257 50.8035 29.0431 50.1959 28.9627 49.384C28.8565 48.3106 29.3249 47.9303 30.8751 47.8315C31.8193 47.7714 32.4972 47.8509 33.0651 48.0883C33.966 48.4651 34.4686 48.279 34.4686 47.5686C34.4686 47.0475 32.8201 46.5064 31.233 46.5064C28.6762 46.5064 27.2628 47.7 27.4849 49.6717C27.6363 51.0163 28.5497 51.8034 30.7658 52.4991C33.1972 53.2624 33.9738 54.0814 33.4822 55.3637C33.1106 56.333 30.5902 56.6485 28.9984 55.925C28.514 55.7048 28.052 55.4184 27.9719 55.2887C27.728 54.8936 27.2927 55.0241 27.0458 55.5664C26.7909 56.1264 27.0134 56.4383 28.0524 56.9777C29.4962 57.7271 31.9471 57.8317 33.3307 57.2029ZM52.4664 57.2766C53.7468 56.8399 55.4789 55.2793 56.1462 53.9612C56.4332 53.3942 56.668 52.8791 56.668 52.8165C56.668 52.7538 55.9716 52.7031 55.1205 52.7039C53.628 52.7052 53.5601 52.7278 53.2118 53.3404C52.0438 55.3951 48.9824 55.5538 47.3052 53.6465C45.4567 51.5446 45.5336 48.487 47.4854 46.4779C48.2151 45.7267 48.665 45.4497 49.3331 45.34C50.7205 45.1122 51.9445 45.5489 52.9583 46.6336C53.8267 47.5627 53.8558 47.5747 55.253 47.5747C56.0312 47.5747 56.668 47.5234 56.668 47.4607C56.668 47.1779 55.5725 45.2236 55.0966 44.6575C54.8063 44.3121 54.0565 43.7456 53.4305 43.3984C52.3937 42.8236 52.1113 42.7673 50.2643 42.7673C48.5764 42.7673 48.0685 42.8501 47.2344 43.2614C45.1615 44.2834 43.6756 46.3436 43.2275 48.8167C42.7314 51.555 43.8647 54.6973 45.9119 56.2603C47.5729 57.5284 50.4293 57.9713 52.4664 57.2766ZM74.7068 57.1332C75.6857 56.6207 76.7515 55.4764 77.2416 54.4118C77.8653 53.0568 77.8342 50.8221 77.1723 49.4429C75.897 46.7854 72.5945 45.7204 69.8887 47.0939C65.7233 49.2084 66.1034 55.6868 70.4889 57.325C71.4898 57.6988 73.8294 57.5924 74.7068 57.1332ZM71.1324 54.7183C69.3791 53.7661 69.4074 50.3099 71.176 49.3944C72.4015 48.7601 73.8898 49.1873 74.488 50.3453C74.6661 50.69 74.8118 51.4623 74.8118 52.0615C74.8118 52.6608 74.6661 53.4331 74.488 53.7778C73.8901 54.9352 72.3344 55.3712 71.1324 54.7183ZM87.7938 57.0619C88.6196 56.65 89.0565 56.251 89.49 55.5129C90.0596 54.5429 90.0756 54.4234 90.1442 50.6193L90.2145 46.72H88.832H87.4496L87.3743 50.264L87.299 53.808L86.7001 54.3235C85.9524 54.9672 84.8892 54.9972 84.1259 54.3963L83.5635 53.9535V50.3368V46.72H82.0523H80.5412L80.6115 50.6193C80.6804 54.4398 80.6938 54.5391 81.2755 55.5296C82.1328 56.9893 83.2944 57.5741 85.3893 57.6005C86.3754 57.6129 86.945 57.4853 87.7938 57.0619ZM62.2572 53.7515C62.3226 50.2064 62.3394 50.088 62.8305 49.6904C63.1087 49.4651 63.709 49.2212 64.1646 49.1482L64.9928 49.0157V47.761V46.5064H63.8432C62.1192 46.5064 60.5877 47.3725 59.881 48.747C59.3727 49.7356 59.3348 50.0326 59.2608 53.6016L59.1819 57.4031H60.6858H62.1898L62.2572 53.7515ZM98.8256 51.1968C98.5908 51.0897 97.8553 50.8042 97.1911 50.5624C95.787 50.0512 95.4816 49.5751 96.1895 49.0013C96.7278 48.565 97.9959 48.6404 99.3059 49.1866C99.8679 49.4209 99.9996 49.5962 99.9996 50.1102C99.9996 51.3516 99.7239 51.6067 98.8256 51.1968Z" fill="#EE7B82"/>
<path d="M44.608 99.721C44.1384 99.6209 42.9377 99.4274 41.9398 99.2911C37.8594 98.7337 32.7939 97.1402 28.3854 95.027C12.9354 87.6213 2.32444 72.7157 0.309632 55.5882C-0.00154736 52.9429 -0.00484564 47.0488 0.303407 44.4778C1.69698 32.8551 6.95802 22.2021 15.2876 14.1366C19.3399 10.2127 23.1958 7.5352 28.3854 5.04163C35.4273 1.65797 42.0558 0.13122 49.731 0.125025C56.3489 0.119682 61.2585 0.980753 67.1276 3.17617C74.1827 5.81518 79.9411 9.50843 85.1856 14.758C90.8333 20.4111 94.6268 26.5612 97.2236 34.274C98.4815 38.0101 99.4265 42.4344 99.6085 45.4393C99.6734 46.5108 99.642 46.6094 99.2528 46.5574C99.018 46.526 98.1513 46.478 97.3269 46.4506C94.5058 46.3569 92.8394 47.7622 93.0137 50.0881C93.1406 51.7809 93.5615 52.1491 96.7447 53.3515C98.2789 53.9311 98.5057 54.0831 98.5057 54.5313C98.5057 54.9052 98.3563 55.0834 97.9593 55.1832C97.0804 55.4039 95.5945 55.1467 94.4371 54.5734L93.362 54.0408L92.8455 55.0611C92.2661 56.2057 92.2576 56.1887 93.8096 57.0001C94.6335 57.4308 95.0815 57.5029 96.9574 57.5067C99.5289 57.5119 99.3967 57.2812 98.7235 60.5876C98.1446 63.4311 96.3775 68.5252 94.8989 71.6127C88.5136 84.9466 76.5016 94.7872 62.2874 98.3292C57.2976 99.5726 55.8984 99.7504 50.4781 99.8297C47.7191 99.8701 45.0776 99.8212 44.608 99.721ZM12.1453 57.7019C12.4447 57.5869 12.4829 56.6804 12.4829 49.6897V41.8071H11.7358H10.9887V49.6769C10.9887 54.0053 11.0527 57.6108 11.131 57.6892C11.3082 57.8665 11.7038 57.8715 12.1453 57.7019ZM22.9746 57.1508C23.5207 56.9187 24.1722 56.5107 24.4224 56.2441C24.8661 55.7714 24.8676 55.7476 24.4852 55.2749L24.0931 54.7902L23.0733 55.5097C22.1398 56.1683 21.9212 56.2292 20.4885 56.2292C19.0903 56.2292 18.825 56.16 18.0019 55.581C16.8951 54.8023 16.0054 53.0369 16.547 52.694C16.7185 52.5855 18.853 52.4952 21.2905 52.4934L25.7222 52.4901L25.5941 51.5821C25.2141 48.8893 24.2452 47.5074 22.2003 46.7416C20.7717 46.2065 20.1777 46.187 18.6991 46.6265C16.5521 47.2647 15.0731 49.1682 14.8831 51.5378C14.5102 56.1879 18.5866 59.0156 22.9746 57.1508ZM16.3251 51.0084C16.3251 50.1539 17.4482 48.635 18.4597 48.1215C19.8961 47.3923 21.7233 47.5976 22.8017 48.6093C23.3973 49.1681 24.223 50.5488 24.223 50.986C24.223 51.1318 22.8652 51.2081 20.274 51.2081C17.967 51.2081 16.3251 51.1251 16.3251 51.0084ZM33.4223 57.1725C35.3716 56.1963 35.5915 53.5246 33.8285 52.2378C33.535 52.0236 32.4903 51.564 31.5069 51.2165C30.5236 50.869 29.539 50.4216 29.319 50.2223C28.9165 49.8577 28.791 48.9527 29.0824 48.516C29.6206 47.7091 31.6868 47.5533 33.1332 48.2104C34.0187 48.6128 34.0436 48.613 34.2539 48.2198C34.3721 47.9986 34.4689 47.6751 34.4689 47.5008C34.4689 47.0215 32.6191 46.4085 31.1603 46.4044C28.8355 46.3979 27.4273 47.554 27.4256 49.4706C27.4245 50.8266 28.5031 51.8591 30.5805 52.4907C32.6127 53.1086 33.49 53.7077 33.5717 54.5334C33.618 55.0014 33.4837 55.3166 33.0737 55.7018C32.583 56.1627 32.3194 56.2285 30.9824 56.2234C29.6863 56.2186 29.3147 56.1288 28.5497 55.6359C27.4664 54.9378 27.2967 54.9225 26.9906 55.495C26.6924 56.0527 26.9705 56.418 28.1531 57.0219C29.7648 57.8449 31.9547 57.9075 33.4223 57.1725ZM52.1931 57.4058C53.9879 56.9067 56.0485 54.9129 56.5559 53.1845C56.6933 52.7168 56.6547 52.7038 55.1278 52.7038C53.6193 52.7038 53.5442 52.728 53.1895 53.3291C52.1246 55.1335 49.4078 55.4955 47.7035 54.0601C46.5787 53.1127 46.1121 51.9633 46.1121 50.1398C46.1121 48.9042 46.2188 48.3357 46.5781 47.6562C47.4509 46.0056 49.1385 45.068 50.716 45.3573C51.6318 45.5252 52.8899 46.3626 53.2564 47.0482C53.5175 47.5364 53.6569 47.5759 55.1178 47.5759C56.6572 47.5759 56.6933 47.5638 56.5489 47.0952C56.0683 45.5356 54.8719 44.1251 53.3789 43.358C52.5237 42.9185 51.8937 42.7794 50.4188 42.7043C48.6516 42.6143 48.4673 42.6472 47.1748 43.2841C44.501 44.6017 43.156 46.8962 43.156 50.1398C43.156 52.458 43.7169 53.9988 45.1048 55.4929C46.7904 57.3076 49.7115 58.0959 52.1931 57.4058ZM74.3272 57.2909C77.0064 56.1703 78.3571 53.2228 77.5136 50.3375C76.6715 47.4571 73.6877 45.7833 70.8611 46.6058C67.1014 47.6999 65.6704 52.6816 68.227 55.776C69.5724 57.4044 72.3854 58.103 74.3272 57.2909ZM71.1774 54.7023C69.4682 53.5631 69.3096 51.1811 70.8487 49.7659C71.8946 48.8043 72.8317 48.8156 73.908 49.8029C74.6796 50.5107 74.7053 50.5814 74.7053 51.993C74.7053 53.1182 74.6077 53.5826 74.2784 54.0245C73.5 55.0692 72.1656 55.3609 71.1774 54.7023ZM87.214 57.3716C88.4002 56.9689 89.0914 56.3637 89.6997 55.1955C90.2459 54.1465 90.278 53.9122 90.3553 50.4069L90.4366 46.7213H88.8146H87.1925V50.2564C87.1925 53.7248 87.1826 53.8014 86.6686 54.3159C86.3068 54.678 85.9073 54.8404 85.3781 54.8404C84.8489 54.8404 84.4494 54.678 84.0877 54.3159C83.5736 53.8014 83.5638 53.7248 83.5638 50.2564V46.7213H82.0927C80.3094 46.7213 80.4079 46.4679 80.4733 50.8877C80.5232 54.2621 80.6774 54.9525 81.6599 56.2026C82.645 57.456 85.312 58.0174 87.214 57.3716ZM62.2182 54.082C62.2182 49.8107 62.4422 49.2852 64.2635 49.2852H64.9931V47.8897C64.9931 46.2299 64.8642 46.1333 63.114 46.4813C61.3728 46.8275 60.298 47.6498 59.7166 49.0808C59.2937 50.1216 59.2422 50.6306 59.2363 53.8255L59.2298 57.4043H60.724H62.2181L62.2182 54.082ZM97.9995 50.8625C97.1928 50.5877 96.4003 50.2528 96.2385 50.1183C95.889 49.828 95.8505 49.1547 96.1721 48.9558C96.5588 48.7165 97.7225 48.7623 98.7786 49.0583L99.7864 49.3407V50.3813C99.7864 50.9536 99.7144 51.4084 99.6263 51.392C99.5383 51.3756 98.8062 51.1373 97.9995 50.8625Z" fill="#EA5A63"/>
<path d="M44.5018 99.6981C43.8561 99.5875 42.3673 99.3419 41.1933 99.1522C34.9888 98.1494 27.9094 95.2925 22.1957 91.4855C10.1714 83.474 2.10272 70.2721 0.323965 55.6994C-0.000370972 53.0422 0.0519878 46.4894 0.41995 43.6863C1.38687 36.3206 4.34162 28.4909 8.46276 22.3737C10.9742 18.6459 11.6668 17.8048 14.8148 14.6599C19.0151 10.4637 22.6881 7.83986 27.959 5.27026C32.7127 2.95279 36.6778 1.6569 42.0471 0.665941C44.623 0.190525 52.3311 0.00190651 55.1226 0.345981C63.594 1.39018 70.9118 4.05902 77.6942 8.57806C86.9267 14.7295 93.7022 23.6834 97.26 34.4346C98.6113 38.5178 99.5735 43.1783 99.5735 45.6399V46.4856L97.8125 46.3703C96.1787 46.2634 95.9666 46.2989 94.8775 46.8615C93.9334 47.3491 93.6048 47.667 93.1997 48.4844C92.1125 50.6786 93.3055 52.3245 96.7986 53.4493C98.194 53.8987 98.5062 54.1178 98.5062 54.6476C98.5062 55.5008 96.2376 55.4372 94.4401 54.5335L93.4015 54.0113L92.9898 54.6923C92.1524 56.0774 92.1858 56.2407 93.4285 56.8372C95.0045 57.5936 96.9234 57.9295 98.1604 57.6654C99.0707 57.4711 99.1466 57.4873 99.1466 57.8762C99.1466 58.9095 98.1964 62.7974 97.2386 65.683C93.1438 78.02 84.7152 88.0173 73.281 94.0997C69.707 96.0009 64.7359 97.8254 60.9379 98.6299C56.2751 99.6177 55.2087 99.7388 50.4786 99.8183C47.8371 99.8627 45.1475 99.8086 44.5018 99.6981ZM12.4326 49.7886C12.4835 42.5743 12.4565 41.8412 12.1357 41.718C11.9417 41.6435 11.6043 41.6392 11.3861 41.7086C11.0086 41.8285 10.9892 42.2247 10.9892 49.8461V57.8575L11.683 57.7905L12.3767 57.7236L12.4326 49.7886ZM22.8115 57.2936C23.8523 56.8572 24.8639 56.1179 24.8639 55.7936C24.8639 55.6576 24.6729 55.3734 24.4395 55.1619C24.0289 54.79 23.989 54.7956 23.2121 55.3342C22.0957 56.1081 20.5135 56.4474 19.4207 56.1472C17.7298 55.6827 16.9662 54.9282 16.4511 53.213C16.3303 52.8105 16.4228 52.7473 17.311 52.6254C17.8584 52.5503 19.9873 52.4889 22.0417 52.4889H25.7772L25.6488 51.4041C25.1559 47.2385 21.4771 45.1381 17.8509 46.9519C15.8021 47.9767 14.8314 49.6192 14.8314 52.0616C14.8314 54.8754 16.197 56.7549 18.8871 57.6439C19.6514 57.8964 21.8396 57.7011 22.8115 57.2936ZM16.3256 51.0932C16.3256 50.7898 17.0246 49.3596 17.3477 49.002C18.473 47.7565 21.003 47.3824 22.3046 48.2691C23.1778 48.864 23.7371 49.6059 23.9957 50.5125L24.1937 51.2069H20.2597C18.0959 51.2069 16.3256 51.1558 16.3256 51.0932ZM33.3517 57.2577C34.4325 56.7271 35.1098 55.6566 35.1098 54.4788C35.1098 53.0178 34.0524 52.0258 31.5877 51.1744C29.381 50.4122 28.9195 50.0852 28.9195 49.284C28.9195 48.4415 29.6006 47.9447 30.9036 47.8365C31.9143 47.7526 32.6332 47.9357 33.8699 48.5919C33.951 48.635 34.171 48.373 34.3587 48.0098L34.6999 47.3493L33.5707 46.8231C30.7124 45.4911 27.4253 46.7713 27.4253 49.2166C27.4253 50.943 28.1845 51.7457 30.5205 52.4891C32.1757 53.016 33.3886 53.7494 33.5287 54.3083C33.7928 55.3612 32.5461 56.3293 30.9208 56.3336C30.2652 56.3354 28.78 55.7756 28.0393 55.2477C27.6881 54.9973 27.3713 54.8271 27.3352 54.8693C27.2992 54.9115 27.1524 55.1714 27.0091 55.4469C26.1593 57.0798 30.9361 58.4435 33.3517 57.2577ZM53.1621 56.9851C54.4792 56.3832 55.5926 55.2734 56.3221 53.8349C56.8632 52.7679 56.7967 52.7025 55.171 52.7025C53.68 52.7025 53.6692 52.7067 52.7697 53.6431C51.3964 55.0726 49.5748 55.3419 48.0488 54.341C46.6952 53.4532 45.8013 51.0863 46.1122 49.2127C46.3093 48.0251 46.6496 47.4142 47.6583 46.4367C49.2444 44.8999 51.1373 44.9729 52.7977 46.6348C53.7278 47.5659 53.7505 47.5747 55.2259 47.5747H56.7151L56.5729 47.0077C56.4948 46.6959 56.1486 46.0303 55.8037 45.5285C54.4561 43.5679 52.5994 42.6071 50.1584 42.6071C48.121 42.6071 46.7673 43.1561 45.3435 44.5601C43.7218 46.1592 43.1457 47.6214 43.1457 50.1386C43.1457 52.4334 43.736 54.0675 45.0876 55.5138C47.2075 57.7823 50.2169 58.3307 53.1621 56.9851ZM87.7704 57.1682C88.8472 56.6465 89.8602 55.3922 90.1875 54.1755C90.3076 53.7292 90.3793 51.8451 90.347 49.9886L90.2881 46.6132H88.794H87.2998L87.193 50.2919C87.0733 54.4183 87.0163 54.5753 85.5648 54.7701C84.9323 54.855 84.604 54.7786 84.2014 54.4527C83.6819 54.0322 83.6688 53.9474 83.5643 50.3183L83.4576 46.6132H81.9634H80.4692L80.4759 50.4591C80.4832 54.5652 80.5873 55.0536 81.7215 56.3017C83.0934 57.8113 85.6788 58.1817 87.7704 57.1682ZM74.7663 57.1037C76.5375 56.2013 77.6115 54.5393 77.7611 52.4694C78.0695 48.2007 73.902 45.0661 70.2233 46.7999C68.8937 47.4266 68.1594 48.1091 67.5224 49.3104C66.8286 50.6188 66.8088 53.4715 67.4847 54.7323C68.501 56.628 70.1246 57.5954 72.3116 57.6082C73.43 57.6148 73.9886 57.5 74.7663 57.1037ZM71.4866 54.8558C71.2422 54.7513 70.786 54.361 70.4727 53.9883C69.3556 52.6595 69.861 50.186 71.4138 49.3823C74.0862 47.999 76.1254 52.3626 73.7936 54.4749C73.2936 54.9278 72.1118 55.1229 71.4866 54.8558ZM62.2187 54.1913C62.2187 49.8058 62.3909 49.425 64.46 49.2357C65.0998 49.1772 65.1003 49.176 65.1003 47.7884V46.3996L64.0331 46.3377C62.5727 46.2529 60.8609 47.121 59.9787 48.3935L59.337 49.3192L59.2707 53.3612L59.2044 57.4031H60.7115H62.2187V54.1913ZM97.9876 50.8032C96.2304 50.1971 95.7752 49.8206 96.0219 49.1773C96.146 48.8535 96.3613 48.8145 97.5125 48.907C99.4428 49.0621 99.7869 49.298 99.7869 50.4666C99.7869 50.9913 99.7629 51.413 99.7336 51.4038C99.7042 51.3946 98.9185 51.1244 97.9876 50.8032Z" fill="#E73A44"/>
<path d="M43.4338 99.4818C28.427 97.27 16.4083 89.6739 8.10206 77.1512C6.51534 74.759 4.31498 70.3648 3.1882 67.3381C2.33912 65.0573 0.957339 59.7791 0.491784 57.0382C0.0536792 54.459 0.122543 45.044 0.598509 42.4467C1.56603 37.1669 3.07827 32.4613 5.23338 28.0246C7.73511 22.8742 10.5381 18.9699 14.8293 14.6586C22.0516 7.40243 30.9562 2.78777 41.5127 0.830396C44.3116 0.311426 45.0879 0.256631 49.624 0.257831C56.6423 0.259698 60.5574 0.892578 66.3803 2.96655C81.8135 8.46341 93.0937 20.3581 97.7456 36.0405C98.632 39.0287 99.5727 44.0039 99.5727 45.7037V46.4296L97.7728 46.335C96.2276 46.2539 95.834 46.3077 94.992 46.7157C93.5385 47.42 92.8489 48.4378 92.8489 49.8786C92.8489 50.9958 92.8887 51.077 93.8752 51.971C94.6518 52.6748 95.2954 53.0201 96.5208 53.3904C98.348 53.9425 98.8781 54.4475 98.1853 54.9761C97.6043 55.4194 95.9546 55.2181 94.5771 54.5357C93.9928 54.2462 93.4355 54.0583 93.3388 54.1182C93.1107 54.2593 92.3152 55.8195 92.3152 56.1258C92.3152 56.2554 92.9636 56.6659 93.7561 57.0381C95.0451 57.6435 95.4049 57.7152 97.1714 57.7191C98.5076 57.722 99.1458 57.8023 99.1458 57.9676C99.1458 59.048 97.5826 64.9114 96.5621 67.6586C95.7494 69.8465 93.7303 73.9514 92.4635 75.9914C86.4148 85.7317 77.9781 92.6912 67.3409 96.715C60.0854 99.4595 50.6732 100.549 43.4338 99.4818ZM12.4827 49.6976V41.5649L11.7889 41.6319L11.0952 41.6988L11.0393 49.7645L10.9833 57.8302H11.733H12.4827V49.6976ZM23.1004 57.1831C24.6428 56.4116 25.0348 56.0138 24.7298 55.5297C24.2568 54.7792 23.8866 54.748 23.0487 55.3877C22.3829 55.8959 21.9879 56.0179 20.787 56.0858C18.9189 56.1915 17.689 55.655 17.0045 54.4359C16.2169 53.0331 16.3329 52.7847 17.8504 52.626C18.572 52.5505 20.6372 52.4887 22.4397 52.4887H25.7169V51.7797C25.7169 49.7604 24.3941 47.5786 22.6606 46.7386C21.466 46.1598 19.3491 46.1401 18.1253 46.6964C15.8041 47.7517 14.7199 49.6875 14.8812 52.4887C14.9425 53.5535 15.1254 54.3868 15.4263 54.9723C16.7899 57.6253 20.2332 58.6172 23.1004 57.1831ZM16.5527 50.5123C16.8416 49.4993 17.4114 48.8304 18.4565 48.2772C20.676 47.1024 23.4745 48.2631 23.931 50.5478L24.0627 51.2067H20.2087H16.3547L16.5527 50.5123ZM33.1696 57.4123C34.494 56.736 35.109 55.8446 35.109 54.6014C35.109 53.9788 34.9645 53.3212 34.7585 53.0066C34.2942 52.2971 32.96 51.5344 31.2616 51.0073C30.5013 50.7714 29.6632 50.4258 29.3991 50.2394C28.5398 49.6331 28.8758 48.4212 30.0134 48.0243C31.0008 47.6798 31.742 47.7325 32.9007 48.2296L33.9296 48.6711L34.3128 48.1973C34.8285 47.5599 34.7196 47.3385 33.6123 46.7733C31.6943 45.7942 28.6498 46.3121 27.7935 47.7632C27.3272 48.5534 27.3085 50.3048 27.7596 50.9495C28.14 51.493 29.5674 52.2575 31.2014 52.7928C32.7913 53.3137 33.4014 53.8542 33.4014 54.7422C33.4014 55.6846 32.6165 56.1209 30.9211 56.1209C29.9592 56.1209 29.4598 55.985 28.5657 55.4799C27.9417 55.1274 27.3932 54.839 27.347 54.839C27.3008 54.839 27.1382 55.1403 26.9858 55.5086C26.738 56.1075 26.7522 56.2115 27.12 56.4934C28.8549 57.823 31.5605 58.2339 33.1696 57.4123ZM52.5525 57.3495C54.0183 56.7769 55.8457 55.078 56.4526 53.7236L56.8624 52.8092L55.2388 52.7462L53.6153 52.6832L52.9879 53.4451C52.1442 54.4696 51.3581 54.839 50.0214 54.839C48.6854 54.839 47.7988 54.3146 46.969 53.0336C45.8765 51.3471 45.7507 49.5172 46.6121 47.8409C47.8058 45.5179 50.2846 44.7251 52.1424 46.0722C52.6235 46.421 53.1216 46.9018 53.2492 47.1405C53.4527 47.5211 53.6909 47.5745 55.1843 47.5745H56.8873L56.5655 46.8036C56.0014 45.4524 54.812 44.0455 53.7442 43.4667C51.6895 42.3528 48.8408 42.2824 46.8607 43.2965C43.8294 44.8489 42.168 49.3886 43.4146 52.7128C44.3821 55.2926 45.6038 56.5597 47.9312 57.3975C49.4882 57.958 51.0358 57.9419 52.5525 57.3495ZM74.3139 57.3896C75.6216 56.8312 76.6201 55.8787 77.3237 54.5185C78.599 52.0532 77.6876 48.7825 75.2795 47.1821C74.3342 46.5538 73.8874 46.4015 72.7834 46.3312C71.1678 46.2282 70.2473 46.5031 68.9896 47.4644C67.969 48.2444 67.0192 49.9389 66.7867 51.3942C66.6199 52.4384 67.116 54.1913 67.9503 55.5055C68.4273 56.2568 68.8963 56.6523 69.9141 57.1614C71.5209 57.9651 72.8099 58.032 74.3139 57.3896ZM71.7167 54.8936C70.1046 54.5208 69.3376 51.895 70.386 50.3379C70.6614 49.9288 71.2183 49.4867 71.6791 49.3111C72.3983 49.0371 72.5692 49.0413 73.2128 49.3485C74.1305 49.7865 74.6236 50.5379 74.7541 51.697C74.9803 53.7052 73.4666 55.2982 71.7167 54.8936ZM87.6047 57.3034C88.8281 56.6829 89.8924 55.4755 90.1913 54.369C90.3087 53.9342 90.3784 52.0112 90.3461 50.0958L90.2874 46.613H88.7932H87.299L87.2379 50.1384C87.1845 53.2188 87.1254 53.7313 86.7698 54.198C86.4415 54.6289 86.1764 54.7321 85.3977 54.7321C83.7491 54.7321 83.6809 54.5609 83.603 50.2291L83.5358 46.488L82.0021 46.5505L80.4684 46.613L80.4095 50.0111C80.3367 54.2055 80.5775 55.26 81.8767 56.4348C83.0422 57.4888 83.8467 57.8118 85.3316 57.8218C86.2329 57.8279 86.8465 57.688 87.6047 57.3034ZM62.2362 53.8775C62.305 51.8798 62.377 50.225 62.3963 50.2002C62.8788 49.5801 63.4929 49.2838 64.2958 49.2838H65.2258L65.1627 47.8416L65.0996 46.3994L63.9973 46.3354C62.1767 46.2298 60.4917 47.2288 59.6095 48.9368C59.2104 49.7094 59.1424 50.2747 59.0577 53.5274C58.9797 56.5243 59.0177 57.2737 59.2554 57.4285C59.4173 57.534 60.1261 57.5954 60.8305 57.565L62.1112 57.5097L62.2362 53.8775ZM98.0785 50.8024C96.1096 50.1057 95.944 50.0037 95.944 49.4889C95.944 48.7763 97.6604 48.654 99.1992 49.2569C99.7192 49.4606 99.7862 49.5972 99.7862 50.4536C99.7862 50.9854 99.7622 51.4088 99.7328 51.3946C99.7035 51.3805 98.9591 51.114 98.0785 50.8024Z" fill="#E52934"/>
<path d="M43.0066 99.3635C32.6392 97.9681 22.4001 92.9185 15.0489 85.5755C7.72031 78.2551 3.26997 69.9759 1.08301 59.594C-1.36424 47.9764 0.830849 35.2598 7.13597 24.5276C12.3809 15.5999 20.5934 8.35039 29.9858 4.35683C34.3513 2.50068 38.3168 1.39914 43.7537 0.532444C44.7604 0.371965 47.2575 0.265824 49.8372 0.273865C56.2916 0.293981 60.1872 0.919993 65.9468 2.86265C68.9743 3.8838 73.9967 6.25269 76.5192 7.84934C84.2551 12.7458 90.5174 19.7515 94.5549 28.026C97.311 33.6747 98.956 39.3186 99.4791 44.9216L99.6203 46.4336L97.8087 46.3384C95.5868 46.2217 94.7865 46.4647 93.6891 47.5896C92.8826 48.4163 92.8486 48.5083 92.8486 49.861C92.8486 51.2579 92.8569 51.2777 93.7579 52.0358C94.3245 52.5125 95.3698 53.0442 96.5315 53.4467C98.5659 54.1515 98.9852 54.6307 97.972 55.0928C97.221 55.4353 95.3065 55.0407 94.2167 54.3188C93.5821 53.8984 93.3728 53.8466 93.1918 54.0648C92.8036 54.5331 92.2831 55.9447 92.393 56.2313C92.4505 56.3813 93.0568 56.7787 93.7403 57.1144C94.8492 57.6591 95.2074 57.7248 97.064 57.7248C98.3139 57.7248 99.1418 57.8102 99.1373 57.9385C99.1187 58.4696 98.5056 61.1351 97.9087 63.28C94.9615 73.8699 89.0299 82.657 80.148 89.5909C74.2534 94.1925 66.2377 97.7262 58.9091 98.9537C54.0075 99.7748 47.3388 99.9466 43.0066 99.3635ZM12.1448 57.9156C12.4444 57.8005 12.4824 56.8753 12.4824 49.6897V41.5935H11.7353H10.9882V49.8194C10.9882 57.786 11.0011 58.0453 11.3977 58.0453C11.6229 58.0453 11.9591 57.987 12.1448 57.9156ZM23.0934 57.251C23.7051 56.9491 24.4021 56.4927 24.6422 56.2369L25.0787 55.7718L24.5343 55.2599C24.0797 54.8324 23.9298 54.7915 23.6259 55.0124C21.9818 56.2071 19.8171 56.465 18.3725 55.6381C17.3436 55.0492 16.7526 54.2782 16.6914 53.445L16.6448 52.8107L21.1274 52.7038L25.6099 52.597L25.684 51.956C25.7247 51.6035 25.6449 50.8064 25.5066 50.1848C25.3085 49.2938 25.0217 48.8074 24.1519 47.8875C23.1979 46.8785 22.8662 46.6751 21.703 46.3851C19.5666 45.8527 17.8037 46.3564 16.2768 47.9355C15.4052 48.837 14.6309 50.7897 14.6222 52.1082C14.6168 52.9207 15.2967 55.0044 15.8411 55.8441C16.2615 56.4924 17.9851 57.5646 19.0026 57.8107C20.2127 58.1034 21.8091 57.885 23.0934 57.251ZM16.5381 50.8716C16.5381 50.0896 17.2683 49.0369 18.1829 48.5004C19.3288 47.8282 20.9626 47.7375 22.0879 48.2837C22.9246 48.6897 23.7526 49.7691 23.8427 50.5714L23.9023 51.1014L20.2202 51.1598C16.9419 51.2119 16.5381 51.1803 16.5381 50.8716ZM33.436 57.3619C34.9672 56.3502 35.4973 55.2166 35.1109 53.78C34.7947 52.6046 33.7794 51.8415 31.48 51.051C29.4971 50.3693 28.9152 49.9705 28.9218 49.2978C28.9337 48.0811 30.9554 47.6215 33.0267 48.3646C34.0058 48.7159 34.0504 48.7141 34.3541 48.3123C34.9028 47.586 34.7473 47.1575 33.7746 46.7156C33.1469 46.4304 32.3842 46.3019 31.2988 46.2987C29.4893 46.2933 28.4958 46.6699 27.8224 47.6165C27.2279 48.4522 27.2092 50.1714 27.7861 50.964C28.2245 51.5663 29.8397 52.4429 31.5867 53.0268C32.9245 53.4739 33.4011 53.8941 33.4011 54.6268C33.4011 55.5055 32.7169 55.976 31.289 56.0794C30.0669 56.1679 28.9034 55.8111 27.8036 55.0107C27.4963 54.7871 27.3825 54.8126 27.112 55.1656C26.5927 55.8434 26.8158 56.3634 27.9153 57.0384C29.5078 58.0159 32.2066 58.1741 33.436 57.3619ZM53.2417 57.0601C54.4983 56.4309 54.9564 56.0522 55.7251 55.0068C56.2436 54.3019 56.6678 53.6474 56.6678 53.5524C56.6678 53.4575 56.7261 53.2277 56.7974 53.0418C56.9088 52.751 56.6889 52.7038 55.221 52.7038C53.6807 52.7038 53.4841 52.7511 53.1962 53.191C53.0208 53.4589 52.4834 53.9514 52.002 54.2853C51.217 54.8298 50.9912 54.8826 49.8116 54.7972C48.6061 54.7099 48.4302 54.631 47.7034 53.851C46.7183 52.794 45.9122 50.7494 46.0767 49.7251C46.2675 48.5375 47.3195 46.6562 48.0711 46.1585C49.6324 45.1246 51.38 45.3419 52.8296 46.75C53.6522 47.5491 53.8548 47.638 55.0414 47.7208C56.769 47.8414 57.014 47.6666 56.5788 46.6241C55.314 43.5941 51.7872 41.905 48.4478 42.7299C46.0879 43.3128 44.6767 44.553 43.5104 47.0691C43.0236 48.1191 42.9278 48.62 42.9228 50.1399C42.9175 51.7618 42.9912 52.1085 43.612 53.382C44.5224 55.2495 44.9892 55.8176 46.2972 56.6498C47.8001 57.6059 48.4319 57.7954 50.1821 57.8148C51.5185 57.8297 51.8861 57.739 53.2417 57.0601ZM75.291 56.9343C76.1363 56.3725 76.6768 55.7954 77.1897 54.9071C77.8315 53.7955 77.9062 53.4972 77.9017 52.0628C77.8979 50.8349 77.7881 50.2549 77.4316 49.5809C76.2657 47.3761 74.5789 46.294 72.3081 46.294C70.7064 46.294 69.8184 46.6257 68.6912 47.645C67.3988 48.8137 66.8156 50.1622 66.8109 51.9923C66.8076 53.272 66.9088 53.7192 67.4255 54.7089C68.1567 56.1094 68.5804 56.5336 70.0088 57.2956C70.9342 57.7893 71.2777 57.8553 72.5927 57.7923C73.9199 57.7287 74.2568 57.6216 75.291 56.9343ZM70.9286 54.2529C69.7758 53.0157 69.6034 51.9052 70.3559 50.5649C70.8658 49.6569 71.5054 49.2853 72.5582 49.2853C73.4365 49.2853 74.505 50.3873 74.7154 51.5102C75.1677 53.9234 72.4535 55.8893 70.9286 54.2529ZM87.359 57.5004C88.4083 57.0623 89.4987 56.0035 89.9883 54.9473C90.3266 54.2175 90.3852 53.5385 90.3892 50.3001L90.3939 46.5077H88.7929H87.192V50.0212C87.192 53.4096 87.174 53.5556 86.686 54.1234C86.3007 54.5718 85.9887 54.7122 85.3776 54.7122C84.7666 54.7122 84.4546 54.5718 84.0692 54.1234C83.5813 53.5556 83.5633 53.4096 83.5633 50.0212V46.5077H81.9457H80.3282L80.3982 50.5138C80.4597 54.0378 80.5195 54.6133 80.8951 55.2958C81.3507 56.1239 82.288 56.9961 83.2769 57.5124C84.0746 57.9288 86.3487 57.9221 87.359 57.5004ZM62.2188 54.4665C62.2194 52.7332 62.3158 50.9698 62.433 50.5478C62.6732 49.6822 63.3134 49.2853 64.469 49.2853H65.206V47.7896V46.294L63.9787 46.306C62.4632 46.3209 61.6307 46.6239 60.6234 47.5274C59.3351 48.6828 59.1543 49.3615 59.058 53.4015C59.011 55.3716 59.0274 57.1263 59.0943 57.3008C59.1858 57.5397 59.5864 57.618 60.7168 57.618H62.2177L62.2188 54.4665ZM97.799 50.6373C96.0963 50.0985 95.6926 49.7387 96.1594 49.1757C96.4964 48.7693 97.2874 48.7728 98.6799 49.1867C99.7709 49.511 99.7859 49.527 99.7859 50.3619C99.7859 50.8274 99.7139 51.1984 99.6258 51.1865C99.5378 51.1745 98.7157 50.9274 97.799 50.6373Z" fill="#E10512"/>
</svg>
